<svg width="12" height="7" viewBox="0 0 12 7" fill="none" xmlns="http://www.w3.org/2000/svg">
<path d="M6.00043 5.23952L10.2879 0.952017C10.4338 0.806184 10.6039 0.735697 10.7984 0.740559C10.9928 0.74542 11.1629 0.820767 11.3088 0.9666C11.4546 1.11243 11.5275 1.28257 11.5275 1.47702C11.5275 1.67146 11.4546 1.8416 11.3088 1.98743L6.83168 6.4791C6.71502 6.59577 6.58377 6.68327 6.43793 6.7416C6.2921 6.79993 6.14627 6.8291 6.00043 6.8291C5.8546 6.8291 5.70877 6.79993 5.56293 6.7416C5.4171 6.68327 5.28585 6.59577 5.16918 6.4791L0.677514 1.98743C0.53168 1.8416 0.461194 1.66903 0.466055 1.46973C0.470916 1.27042 0.546264 1.09785 0.692097 0.952017C0.83793 0.806184 1.00807 0.733267 1.20251 0.733267C1.39696 0.733267 1.5671 0.806184 1.71293 0.952017L6.00043 5.23952Z" fill="#7A7A7A"/>
</svg>
