<svg id="btn_alret" xmlns="http://www.w3.org/2000/svg" xmlns:xlink="http://www.w3.org/1999/xlink" width="24" height="24" viewBox="0 0 24 24">
  <defs>
    <clipPath id="clip-path">
      <rect id="사각형_1623" data-name="사각형 1623" width="18" height="20" fill="#091d60"/>
    </clipPath>
  </defs>
  <rect id="사각형_605" data-name="사각형 605" width="24" height="24" fill="none"/>
  <g id="그룹_1191" data-name="그룹 1191" transform="translate(3 2)">
    <g id="그룹_1190" data-name="그룹 1190" transform="translate(0 0)" clip-path="url(#clip-path)">
      <path id="패스_38172" data-name="패스 38172" d="M17.654,13.3,16.9,12.083a.333.333,0,0,1-.051-.174V7.471A7.582,7.582,0,0,0,10.094.058,8.4,8.4,0,0,0,9.088,0H8.912a8.361,8.361,0,0,0-1,.058A7.582,7.582,0,0,0,1.149,7.471v4.438a.333.333,0,0,1-.051.174L.345,13.3a2.263,2.263,0,0,0-.008,2.391,2.6,2.6,0,0,0,2.219,1.2H5.211A3.763,3.763,0,0,0,9,20a3.766,3.766,0,0,0,3.789-3.109h2.655a2.6,2.6,0,0,0,2.219-1.2,2.268,2.268,0,0,0-.009-2.392M9,18.335a2.048,2.048,0,0,1-1.991-1.444H10.99A2.047,2.047,0,0,1,9,18.335m6.445-3.109H2.556a.729.729,0,0,1-.679-1.091l.753-1.213a1.93,1.93,0,0,0,.292-1.013V7.471A5.885,5.885,0,0,1,8.136,1.708a6.571,6.571,0,0,1,.776-.043h.176a6.571,6.571,0,0,1,.776.043,5.886,5.886,0,0,1,5.214,5.762v4.438a1.919,1.919,0,0,0,.292,1.013l.753,1.213a.729.729,0,0,1-.679,1.091" transform="translate(0 0.001)" fill="#091d60"/>
    </g>
  </g>
</svg>
