<svg id="구성_요소_84_1" data-name="구성 요소 84 – 1" xmlns="http://www.w3.org/2000/svg" xmlns:xlink="http://www.w3.org/1999/xlink" width="24" height="24" viewBox="0 0 24 24">
  <defs>
    <clipPath id="clip-path">
      <rect id="사각형_1623" data-name="사각형 1623" width="16" height="18" fill="#4f50c5"/>
    </clipPath>
  </defs>
  <rect id="사각형_605" data-name="사각형 605" width="24" height="24" fill="none"/>
  <g id="그룹_1191" data-name="그룹 1191" transform="translate(4 3)">
    <g id="그룹_1190" data-name="그룹 1190" transform="translate(0 0)" clip-path="url(#clip-path)">
      <path id="패스_38172" data-name="패스 38172" d="M15.513,11.683l-.661-1.065a.292.292,0,0,1-.045-.153v-3.9A6.663,6.663,0,0,0,8.87.051,7.378,7.378,0,0,0,7.986,0H7.831a7.347,7.347,0,0,0-.883.051A6.663,6.663,0,0,0,1.01,6.565v3.9a.292.292,0,0,1-.045.153L.3,11.684a1.989,1.989,0,0,0-.007,2.1,2.283,2.283,0,0,0,1.95,1.058H4.58a3.307,3.307,0,0,0,3.329,2.732,3.309,3.309,0,0,0,3.33-2.732h2.333a2.285,2.285,0,0,0,1.95-1.058,1.993,1.993,0,0,0-.008-2.1m-7.6,4.429a1.8,1.8,0,0,1-1.75-1.269h3.5a1.8,1.8,0,0,1-1.75,1.269m5.663-2.732H2.246a.641.641,0,0,1-.6-.959l.662-1.066a1.7,1.7,0,0,0,.257-.89v-3.9A5.172,5.172,0,0,1,7.15,1.5a5.774,5.774,0,0,1,.682-.038h.155a5.774,5.774,0,0,1,.682.038,5.172,5.172,0,0,1,4.582,5.064v3.9a1.686,1.686,0,0,0,.257.89l.662,1.066a.641.641,0,0,1-.6.959" transform="translate(0 0)" fill="#4f50c5"/>
    </g>
  </g>
</svg>
