<svg width="18" height="19" viewBox="0 0 18 19" fill="none" xmlns="http://www.w3.org/2000/svg">
<path d="M7.86404 0.486786C8.21286 0.173376 8.66525 0 9.13419 0C9.60313 0 10.0555 0.173376 10.4043 0.486786L17.3728 6.74824C17.5709 6.92641 17.7293 7.14425 17.8378 7.38763C17.9463 7.631 18.0024 7.89447 18.0025 8.16092V17.0995C18.0025 17.6036 17.8022 18.087 17.4458 18.4434C17.0894 18.7998 16.606 19 16.102 19H12.9345C12.4305 19 11.9471 18.7998 11.5907 18.4434C11.2343 18.087 11.034 17.6036 11.034 17.0995V12.6651C11.034 12.4971 10.9673 12.3359 10.8485 12.2171C10.7297 12.0983 10.5686 12.0316 10.4005 12.0316H7.86657C7.69856 12.0316 7.53743 12.0983 7.41862 12.2171C7.29982 12.3359 7.23308 12.4971 7.23308 12.6651V17.0995C7.23308 17.6036 7.03285 18.087 6.67644 18.4434C6.32003 18.7998 5.83664 19 5.3326 19H2.16513C1.66109 19 1.1777 18.7998 0.821286 18.4434C0.464877 18.087 0.264648 17.6036 0.264648 17.0995V8.16092C0.264648 7.62246 0.492706 7.10933 0.895608 6.74824L7.86404 0.486786ZM9.55673 1.42942C9.44048 1.32507 9.28977 1.26735 9.13356 1.26735C8.97734 1.26735 8.82663 1.32507 8.71038 1.42942L1.74196 7.69087C1.67594 7.75013 1.62311 7.82259 1.58688 7.90356C1.55065 7.98454 1.53183 8.07222 1.53164 8.16092V17.0995C1.53164 17.2675 1.59838 17.4287 1.71718 17.5475C1.83598 17.6663 1.99712 17.733 2.16513 17.733H5.3326C5.50061 17.733 5.66174 17.6663 5.78054 17.5475C5.89935 17.4287 5.96609 17.2675 5.96609 17.0995V12.6651C5.96609 12.161 6.16632 11.6776 6.52273 11.3212C6.87914 10.9648 7.36253 10.7646 7.86657 10.7646H10.4005C10.9046 10.7646 11.388 10.9648 11.7444 11.3212C12.1008 11.6776 12.301 12.161 12.301 12.6651V17.0995C12.301 17.2675 12.3678 17.4287 12.4866 17.5475C12.6054 17.6663 12.7665 17.733 12.9345 17.733H16.102C16.27 17.733 16.4311 17.6663 16.5499 17.5475C16.6687 17.4287 16.7355 17.2675 16.7355 17.0995V8.16092C16.7353 8.07222 16.7165 7.98454 16.6802 7.90356C16.644 7.82259 16.5912 7.75013 16.5252 7.69087L9.55673 1.42942Z" fill="#A7A7A7"/>
</svg>
