<svg width="25" height="24" viewBox="0 0 25 24" fill="none" xmlns="http://www.w3.org/2000/svg">
<path d="M19.5723 7.60303H9.28777C8.09762 7.60303 7.13281 8.56783 7.13281 9.75798V19.0824C7.13281 20.2725 8.09762 21.2373 9.28777 21.2373H15.995C16.5423 21.2373 17.0692 21.029 17.4686 20.6547L21.0459 17.3021C21.4806 16.8947 21.7273 16.3255 21.7273 15.7297V9.75798C21.7273 8.56783 20.7625 7.60303 19.5723 7.60303Z" stroke="#A7A7A7" stroke-width="1.5" stroke-linecap="round" />
<path d="M18.0288 5.22365L17.9208 4.62126C17.7109 3.44978 16.5876 2.65013 15.412 2.83519L5.11898 4.45544C3.94331 4.6405 3.16043 5.7402 3.37038 6.91168L4.69857 14.3228" stroke="#A7A7A7" stroke-width="1.5" stroke-linecap="round"/>
<path d="M18.019 16.3335H20.4926L16.9417 19.908L16.9415 17.4111C16.9414 16.816 17.4239 16.3335 18.019 16.3335Z" fill="#A7A7A7" stroke="#A7A7A7" stroke-width="1.61621" stroke-linecap="round"/>
<path d="M10.3145 11.8228H17.7007" stroke="#A7A7A7" stroke-width="1.5" stroke-linecap="round"/>
<path d="M10.3145 15.0552H14.4294" stroke="#A7A7A7" stroke-width="1.5" stroke-linecap="round"/>
</svg>
