<svg width="18" height="19" viewBox="0 0 18 19" fill="none" xmlns="http://www.w3.org/2000/svg">
<path d="M7.86501 0.486786C8.21384 0.173376 8.66623 0 9.13517 0C9.60411 0 10.0565 0.173376 10.4053 0.486786L17.3738 6.74824C17.5719 6.92641 17.7303 7.14425 17.8388 7.38763C17.9473 7.631 18.0034 7.89447 18.0034 8.16093V17.0995C18.0034 17.6036 17.8032 18.087 17.4468 18.4434C17.0904 18.7998 16.607 19 16.103 19H12.9355C12.4315 19 11.9481 18.7998 11.5917 18.4434C11.2352 18.087 11.035 17.6036 11.035 17.0995V12.6651C11.035 12.4971 10.9683 12.3359 10.8495 12.2171C10.7307 12.0983 10.5695 12.0316 10.4015 12.0316H7.86755C7.69953 12.0316 7.5384 12.0983 7.4196 12.2171C7.3008 12.3359 7.23405 12.4971 7.23405 12.6651V17.0995C7.23405 17.6036 7.03382 18.087 6.67742 18.4434C6.32101 18.7998 5.83761 19 5.33357 19H2.16611C1.66207 19 1.17867 18.7998 0.822263 18.4434C0.465854 18.087 0.265625 17.6036 0.265625 17.0995V8.16093C0.265625 7.62246 0.493683 7.10933 0.896584 6.74824L7.86501 0.486786ZM9.55771 1.42942C9.44146 1.32507 9.29075 1.26735 9.13453 1.26735C8.97832 1.26735 8.82761 1.32507 8.71136 1.42942L1.74293 7.69087C1.67692 7.75013 1.62409 7.82259 1.58786 7.90356C1.55162 7.98454 1.5328 8.07222 1.53261 8.16093V17.0995C1.53261 17.2675 1.59935 17.4287 1.71816 17.5475C1.83696 17.6663 1.99809 17.733 2.16611 17.733H5.33357C5.50159 17.733 5.66272 17.6663 5.78152 17.5475C5.90032 17.4287 5.96707 17.2675 5.96707 17.0995V12.6651C5.96707 12.161 6.16729 11.6776 6.5237 11.3212C6.88011 10.9648 7.36351 10.7646 7.86755 10.7646H10.4015C10.9056 10.7646 11.389 10.9648 11.7454 11.3212C12.1018 11.6776 12.302 12.161 12.302 12.6651V17.0995C12.302 17.2675 12.3687 17.4287 12.4875 17.5475C12.6063 17.6663 12.7675 17.733 12.9355 17.733H16.103C16.271 17.733 16.4321 17.6663 16.5509 17.5475C16.6697 17.4287 16.7365 17.2675 16.7365 17.0995V8.16093C16.7363 8.07222 16.7174 7.98454 16.6812 7.90356C16.645 7.82259 16.5921 7.75013 16.5261 7.69087L9.55771 1.42942Z" fill="#FF8F39"/>
</svg>
