<svg id="ic_menu_6" xmlns="http://www.w3.org/2000/svg" xmlns:xlink="http://www.w3.org/1999/xlink" width="24" height="24" viewBox="0 0 24 24">
  <defs>
    <clipPath id="clip-path">
      <rect id="사각형_1959" data-name="사각형 1959" width="17.534" height="19.091" transform="translate(0 0)" fill="#091d60"/>
    </clipPath>
  </defs>
  <rect id="사각형_1956" data-name="사각형 1956" width="24" height="24" fill="none"/>
  <g id="그룹_1896" data-name="그룹 1896" transform="translate(3 2)">
    <g id="그룹_1895" data-name="그룹 1895" clip-path="url(#clip-path)">
      <path id="패스_38373" data-name="패스 38373" d="M16.893,6.012H13.482a.641.641,0,0,0-.642.641v11.8a.641.641,0,0,0,.642.642h3.411a.641.641,0,0,0,.641-.642V6.653a.641.641,0,0,0-.641-.641m-.759,11.679H14.24V7.412h1.894Z" fill="#091d60"/>
      <path id="패스_38374" data-name="패스 38374" d="M10.79,13.231H7.379a.642.642,0,0,0-.641.642v4.544a.642.642,0,0,0,.641.642H10.79a.642.642,0,0,0,.642-.642V13.873a.642.642,0,0,0-.642-.642m-.758,4.428H8.138V14.632h1.894Z" fill="#091d60"/>
      <path id="패스_38375" data-name="패스 38375" d="M4.688,9.541H1.277a.641.641,0,0,0-.642.641v8.235a.642.642,0,0,0,.642.642H4.688a.642.642,0,0,0,.641-.642V10.182a.641.641,0,0,0-.641-.641m-.759,8.118H2.035V10.941H3.929Z" fill="#091d60"/>
      <path id="패스_38376" data-name="패스 38376" d="M1.127,7.828,4.944,4.885l3.588,2.72a.7.7,0,0,0,.935-.081l4.811-5.167.031,1.5a.7.7,0,0,0,.7.685h.015a.7.7,0,0,0,.686-.714L15.644.752a.7.7,0,0,0-.685-.685L11.916,0A.708.708,0,0,0,11.2.687a.7.7,0,0,0,.685.715l1.342.028L8.874,6.107,5.363,3.446a.7.7,0,0,0-.85,0L.273,6.72a.7.7,0,1,0,.854,1.108" fill="#091d60"/>
    </g>
  </g>
</svg>
