<svg width="20" height="19" viewBox="0 0 20 19" fill="none" xmlns="http://www.w3.org/2000/svg">
<path d="M7.35038 2.70436H4.63205C3.54472 2.70436 3.00106 2.70436 2.58554 2.916C2.22021 3.10215 1.92318 3.39918 1.73703 3.76451C1.52539 4.18002 1.52539 4.72369 1.52539 5.81102V15.131C1.52539 16.2183 1.52539 16.762 1.73703 17.1775C1.92318 17.5429 2.22021 17.8399 2.58554 18.026C3.00008 18.2377 3.54375 18.2377 4.62914 18.2377H13.955C15.0403 18.2377 15.583 18.2377 15.9976 18.026C16.3636 17.8396 16.6607 17.5426 16.8471 17.1775C17.0587 16.762 17.0587 16.2193 17.0587 15.1339V12.4127M13.1754 3.67519L7.35038 9.50018V12.4127H10.2629L16.0879 6.58769M13.1754 3.67519L16.0879 0.762695L19.0004 3.67519L16.0879 6.58769M13.1754 3.67519L16.0879 6.58769" stroke="#A7A7A7" stroke-width="1.5" stroke-linecap="round" stroke-linejoin="round"/>
</svg>
