<svg id="ic_menu_4" xmlns="http://www.w3.org/2000/svg" xmlns:xlink="http://www.w3.org/1999/xlink" width="24" height="24" viewBox="0 0 24 24">
  <defs>
    <clipPath id="clip-path">
      <rect id="사각형_1797" data-name="사각형 1797" width="20" height="18.947" fill="#7e7eb5"/>
    </clipPath>
  </defs>
  <rect id="사각형_1615" data-name="사각형 1615" width="24" height="24" fill="none"/>
  <g id="그룹_1389" data-name="그룹 1389" transform="translate(2 3)">
    <g id="그룹_1388" data-name="그룹 1388" transform="translate(0 0)" clip-path="url(#clip-path)">
      <path id="패스_38286" data-name="패스 38286" d="M10.643,6.943H7.785a.722.722,0,0,1-.714-.729V3.3a.722.722,0,0,1,.714-.729h2.858a.722.722,0,0,1,.714.729V6.214a.722.722,0,0,1-.714.729M8.5,5.487H9.929V4.029H8.5Z" transform="translate(0.786 0.343)" fill="#7e7eb5"/>
      <path id="패스_38287" data-name="패스 38287" d="M16.286,4.372H3.429a.711.711,0,0,1-.639-.4L1.362,1.054a.742.742,0,0,1,.031-.71A.711.711,0,0,1,2,0H17.715a.713.713,0,0,1,.608.345.742.742,0,0,1,.031.71L16.925,3.969a.713.713,0,0,1-.639.4M3.87,2.915H15.845l.713-1.458H3.156Z" transform="translate(0.143 0)" fill="#7e7eb5"/>
      <path id="패스_38288" data-name="패스 38288" d="M19.286,1.458H.714A.722.722,0,0,1,0,.729.722.722,0,0,1,.714,0H19.286A.722.722,0,0,1,20,.729a.722.722,0,0,1-.714.729" transform="translate(0 0)" fill="#7e7eb5"/>
      <path id="패스_38289" data-name="패스 38289" d="M18.5,18.261H1.357a.707.707,0,0,1-.536-.247.737.737,0,0,1-.173-.572L1.921,7.059A2.162,2.162,0,0,1,4.047,5.143H15.811a2.162,2.162,0,0,1,2.126,1.916l1.272,10.383a.737.737,0,0,1-.173.572.7.7,0,0,1-.536.247M2.166,16.8H17.691L16.519,7.239a.72.72,0,0,0-.708-.638H4.047a.72.72,0,0,0-.709.638Z" transform="translate(0.071 0.687)" fill="#7e7eb5"/>
      <path id="패스_38290" data-name="패스 38290" d="M8.408,13.921H9.935a.715.715,0,0,0-.084-.364L8.244,10.716a.707.707,0,0,0-.976-.266.737.737,0,0,0-.262,1Z" transform="translate(0.768 1.383)" fill="#7e7eb5"/>
      <path id="패스_38291" data-name="패스 38291" d="M15.357,15H3.928a.722.722,0,0,1-.714-.729A6.5,6.5,0,0,1,9.643,7.714a6.5,6.5,0,0,1,6.429,6.559.722.722,0,0,1-.714.729M4.694,13.544h9.9a4.987,4.987,0,0,0-9.9,0" transform="translate(0.357 1.03)" fill="#7e7eb5"/>
    </g>
  </g>
</svg>
