<svg id="ic_menu_9" xmlns="http://www.w3.org/2000/svg" xmlns:xlink="http://www.w3.org/1999/xlink" width="24" height="24" viewBox="0 0 24 24">
  <defs>
    <clipPath id="clip-path">
      <rect id="사각형_1964" data-name="사각형 1964" width="18.771" height="18.943" transform="translate(0 0)" fill="#091d60"/>
    </clipPath>
  </defs>
  <rect id="사각형_1788" data-name="사각형 1788" width="24" height="24" fill="none"/>
  <g id="그룹_1907" data-name="그룹 1907" transform="translate(3 3)">
    <g id="그룹_1904" data-name="그룹 1904">
      <g id="그룹_1903" data-name="그룹 1903" clip-path="url(#clip-path)">
        <path id="패스_38382" data-name="패스 38382" d="M11.56,12.3a.663.663,0,0,1-.087-.036.7.7,0,0,1-.316-.939c.16-.32.329-.634.508-.939a.7.7,0,0,1,1.208.708q-.245.417-.462.854a.7.7,0,0,1-.851.352m2.288-3.359a.718.718,0,0,1-.244-.144.7.7,0,0,1-.048-.989q.359-.4.744-.767a.7.7,0,1,1,.97,1.009q-.35.336-.677.7a.7.7,0,0,1-.745.193m3.116-2.614a.7.7,0,0,1-.147-1.255c.3-.189.609-.369.922-.537A.7.7,0,1,1,18.4,5.763q-.427.229-.839.489a.7.7,0,0,1-.6.07" fill="#091d60"/>
        <path id="패스_38383" data-name="패스 38383" d="M6.474,12Q6.249,11.562,6,11.15a.7.7,0,1,1,1.195-.729q.277.455.524.931a.7.7,0,0,1-.3.943.593.593,0,0,1-.086.038A.7.7,0,0,1,6.474,12M4.238,8.834c-.222-.237-.452-.467-.689-.687A.7.7,0,1,1,4.5,7.122q.392.363.757.754a.7.7,0,1,1-1.021.958M1.226,6.393Q.811,6.141.379,5.918a.7.7,0,0,1,.642-1.244q.474.246.931.522a.7.7,0,0,1,.235.961.69.69,0,0,1-.361.3.7.7,0,0,1-.6-.06" fill="#091d60"/>
        <path id="패스_38384" data-name="패스 38384" d="M10.593,7.849a.663.663,0,0,1-.087-.036.7.7,0,0,1-.316-.939c.16-.32.329-.634.508-.939a.7.7,0,0,1,1.208.708q-.245.417-.462.854a.7.7,0,0,1-.851.352M12.881,4.49a.718.718,0,0,1-.244-.144.7.7,0,0,1-.048-.989q.359-.4.744-.767A.7.7,0,1,1,14.3,3.6q-.35.336-.677.7a.7.7,0,0,1-.745.193M16,1.876A.7.7,0,0,1,15.85.621c.3-.189.609-.369.922-.537a.7.7,0,1,1,.663,1.233q-.427.229-.839.489a.7.7,0,0,1-.6.07" fill="#091d60"/>
        <path id="패스_38385" data-name="패스 38385" d="M7.442,7.508q-.225-.434-.476-.846a.7.7,0,1,1,1.2-.729q.277.454.524.931a.7.7,0,0,1-.3.943.593.593,0,0,1-.086.038.7.7,0,0,1-.858-.337M5.206,4.346c-.222-.237-.452-.467-.689-.687A.7.7,0,1,1,5.47,2.634q.392.363.757.754a.7.7,0,1,1-1.021.958M2.194,1.9q-.415-.252-.847-.475A.7.7,0,1,1,1.989.186q.474.246.931.522a.7.7,0,0,1,.235.961.69.69,0,0,1-.361.3.7.7,0,0,1-.6-.06" fill="#091d60"/>
      </g>
    </g>
    <g id="그룹_1906" data-name="그룹 1906">
      <g id="그룹_1905" data-name="그룹 1905" clip-path="url(#clip-path)">
        <path id="패스_38386" data-name="패스 38386" d="M16.644,13.316a.5.5,0,0,0-.418-.225H2.674a.5.5,0,0,0-.46.7l.792,2.846v1.81a.5.5,0,0,0,.5.5H15.32a.5.5,0,0,0,.5-.5v-1.69c.013-.021.037-.033.047-.056l.819-2.91a.5.5,0,0,0-.042-.472m-1.176.775L15.078,16H3.822l-.39-1.91Z" fill="#091d60"/>
      </g>
    </g>
  </g>
</svg>
