<svg id="img_logo_3" xmlns="http://www.w3.org/2000/svg" xmlns:xlink="http://www.w3.org/1999/xlink" width="177" height="111" viewBox="0 0 177 111">
  <defs>
    <clipPath id="clip-path">
      <rect id="사각형_2067" data-name="사각형 2067" width="177" height="111" fill="#091d60"/>
    </clipPath>
    <clipPath id="clip-path-2">
      <path id="패스_38460" data-name="패스 38460" d="M383.241,258.794h-.227v2.416h3.711a3.783,3.783,0,0,1,1.448.288,3.578,3.578,0,0,1,1.18.791,3.641,3.641,0,0,1,.79,1.186,3.589,3.589,0,0,1,.286,1.411h2.426a6.118,6.118,0,0,0-.473-2.332,6.236,6.236,0,0,0-1.321-1.969,6.307,6.307,0,0,0-1.968-1.314,5.819,5.819,0,0,0-2.367-.477Z" transform="translate(-383.014 -258.794)" fill="#091d60"/>
    </clipPath>
    <clipPath id="clip-path-4">
      <path id="패스_38664" data-name="패스 38664" d="M373.2,220.663a2.384,2.384,0,0,0-2.383,2.383v11.227a5.84,5.84,0,0,0,.478,2.385,6.15,6.15,0,0,0,1.3,1.942,6.472,6.472,0,0,0,1.94,1.306,6.289,6.289,0,0,0,4.753,0,6.749,6.749,0,0,0,1.968-1.306,6.184,6.184,0,0,0,1.321-1.942,6.1,6.1,0,0,0,.475-2.414l0,0h-2.426c0,.01,0,.02,0,.031a3.565,3.565,0,0,1-.287,1.441,3.8,3.8,0,0,1-.79,1.164,3.658,3.658,0,0,1-1.18.8,4.07,4.07,0,0,1-1.448.274,3.97,3.97,0,0,1-1.442-.274,3.458,3.458,0,0,1-1.188-.8,3.906,3.906,0,0,1-.794-1.164,3.767,3.767,0,0,1-.287-1.441v-13.61Z" transform="translate(-370.815 -220.663)" fill="#091d60"/>
    </clipPath>
  </defs>
  <g id="그룹_2113" data-name="그룹 2113">
    <g id="그룹_2104" data-name="그룹 2104">
      <g id="그룹_2103" data-name="그룹 2103" clip-path="url(#clip-path)">
        <path id="패스_38439" data-name="패스 38439" d="M568.689,410.219h-11.05V399.152h-3.017v-4.97h8v11.067h6.063c6.924,0,11.575-6.461,11.575-12.5V376.97H577.22V372h8.031v20.753c0,8.4-6.332,17.466-16.562,17.466" transform="translate(-445.734 -299.219)" fill="#091d60"/>
        <path id="패스_38440" data-name="패스 38440" d="M273.937,408.311l-2.4-4.358a13,13,0,0,0,6.425-11.2V376.97h-3.044V372h8.031v20.753a18.092,18.092,0,0,1-9.016,15.558" transform="translate(-218.23 -299.219)" fill="#091d60"/>
        <path id="패스_38441" data-name="패스 38441" d="M4.873,393.47l-1.56-4.719c9-2.957,11.811-8.543,12.685-11.78H13.691V372h7.661l.027,2.458c.006.552-.041,13.6-16.506,19.01" transform="translate(-2.663 -299.219)" fill="#091d60"/>
        <path id="패스_38442" data-name="패스 38442" d="M86.441,403.575c-16.465-5.407-16.513-18.458-16.507-19.01l4.987.053-2.493-.027,2.493.009c0,.407.194,10.024,13.08,14.256Z" transform="translate(-56.204 -309.325)" fill="#091d60"/>
        <rect id="사각형_2059" data-name="사각형 2059" width="32.447" height="4.969" transform="translate(0 97.154)" fill="#091d60"/>
        <path id="패스_38443" data-name="패스 38443" d="M741.149,393.47l-1.56-4.719c9.006-2.958,11.811-8.543,12.685-11.78h-2.307V372h7.661l.028,2.458c.006.553-.04,13.6-16.507,19.011" transform="translate(-594.387 -299.219)" fill="#091d60"/>
        <path id="패스_38444" data-name="패스 38444" d="M822.719,403.575c-16.467-5.407-16.513-18.458-16.508-19.01l4.987.053-2.493-.027,2.493.009c0,.407.193,10.024,13.081,14.256Z" transform="translate(-647.93 -309.325)" fill="#091d60"/>
        <rect id="사각형_2060" data-name="사각형 2060" width="32.449" height="4.969" transform="translate(144.551 97.154)" fill="#091d60"/>
        <rect id="사각형_2061" data-name="사각형 2061" width="32.449" height="4.969" transform="translate(69.861 97.154)" fill="#091d60"/>
        <path id="패스_38445" data-name="패스 38445" d="M192.031,392.753h-4.987V376.97H170.9V372h21.128Z" transform="translate(-137.35 -299.219)" fill="#091d60"/>
        <path id="패스_38446" data-name="패스 38446" d="M185.418,403.075V384.7H190.4v13.091c2.993-.374,7.157-1.256,9.107-3.051l3.383,3.65c-4.459,4.106-13.839,4.553-14.894,4.591Z" transform="translate(-149.015 -309.435)" fill="#091d60"/>
        <path id="패스_38447" data-name="패스 38447" d="M542.608,392.858V376.97h-2.85V372h7.836v15.576c2.993-.374,7.158-1.256,9.108-3.051l3.383,3.651c-4.46,4.105-13.841,4.552-14.9,4.59Z" transform="translate(-433.789 -299.219)" fill="#091d60"/>
        <rect id="사각형_2062" data-name="사각형 2062" width="26.692" height="4.97" transform="translate(71.139 72.782)" fill="#091d60"/>
        <path id="패스_38448" data-name="패스 38448" d="M381.265,403.013c-.993,0-1.7-.02-2-.03l-2.407-.082V384.7h4.986v13.336c5.358-.059,14.7-.77,18.454-3.7l3.069,3.916c-5.506,4.288-17.259,4.754-22.106,4.754" transform="translate(-302.873 -309.435)" fill="#091d60"/>
        <rect id="사각형_2063" data-name="사각형 2063" width="15.681" height="4.969" transform="translate(76.481 80.518)" fill="#091d60"/>
        <rect id="사각형_2064" data-name="사각형 2064" width="15.681" height="4.97" transform="translate(110.139 78.972)" fill="#091d60"/>
        <rect id="사각형_2065" data-name="사각형 2065" width="4.987" height="20.626" transform="translate(122.112 72.885)" fill="#091d60"/>
        <rect id="사각형_2066" data-name="사각형 2066" width="7.558" height="4.969" transform="translate(61.875 80.518)" fill="#091d60"/>
        <path id="패스_38449" data-name="패스 38449" d="M275.507,26.056l-2.559-.142c.726-13.023-3.031-20.715-11.17-22.887a13.822,13.822,0,0,0,10.214,15.831l-.59,2.486c-5.984-1.413-14.507-8.125-11.9-20.127L259.769,0,261,.232c7.2,1.358,15.564,6.94,14.511,25.824" transform="translate(-208.168)" fill="#091d60"/>
        <path id="패스_38450" data-name="패스 38450" d="M563.918,182.8h2.622v-6.1a5.8,5.8,0,0,0-.477-2.377,6.126,6.126,0,0,0-1.3-1.934,6.46,6.46,0,0,0-1.94-1.3,6.3,6.3,0,0,0-4.752,0,6.733,6.733,0,0,0-1.968,1.3,6.166,6.166,0,0,0-1.321,1.934,6.134,6.134,0,0,0,0,4.731,6.21,6.21,0,0,0,1.321,1.962,6.311,6.311,0,0,0,1.968,1.309,5.836,5.836,0,0,0,2.366.476Zm-6.11-3.483a3.63,3.63,0,0,1-.791-1.181,3.742,3.742,0,0,1,0-2.873,3.793,3.793,0,0,1,.791-1.159,3.639,3.639,0,0,1,1.18-.794,4.07,4.07,0,0,1,1.447-.274,3.975,3.975,0,0,1,1.442.274,3.443,3.443,0,0,1,1.188.794,3.9,3.9,0,0,1,.794,1.159,3.747,3.747,0,0,1,.287,1.437v3.693h-3.711a3.8,3.8,0,0,1-1.447-.287,3.578,3.578,0,0,1-1.18-.788" transform="translate(-445.48 -137.237)" fill="#091d60"/>
        <path id="패스_38451" data-name="패스 38451" d="M522.773,260.562a6.447,6.447,0,0,0-1.939-1.3,6.3,6.3,0,0,0-4.753,0,6.738,6.738,0,0,0-1.968,1.3,6.172,6.172,0,0,0-1.321,1.934,6.127,6.127,0,0,0,0,4.731,6.209,6.209,0,0,0,1.321,1.962,6.316,6.316,0,0,0,1.968,1.309,5.843,5.843,0,0,0,2.367.475h6.1v-6.1a5.813,5.813,0,0,0-.477-2.377,6.143,6.143,0,0,0-1.3-1.934m-.615,8.005h-3.71a3.8,3.8,0,0,1-1.448-.287,3.578,3.578,0,0,1-1.179-.789,3.635,3.635,0,0,1-.791-1.181,3.744,3.744,0,0,1,0-2.874,3.8,3.8,0,0,1,.791-1.16,3.648,3.648,0,0,1,1.179-.794,4.084,4.084,0,0,1,1.448-.274,3.987,3.987,0,0,1,1.442.274,3.453,3.453,0,0,1,1.188.794,3.879,3.879,0,0,1,.794,1.16,3.732,3.732,0,0,1,.287,1.437Z" transform="translate(-411.735 -208.162)" fill="#091d60"/>
        <path id="패스_38452" data-name="패스 38452" d="M450.126,173.429a3.788,3.788,0,0,1,1.168.787,3.539,3.539,0,0,1,.79,1.192,3.63,3.63,0,0,1,.283,1.429v6.082h2.463v-6.082a5.847,5.847,0,0,0-.48-2.354,6,6,0,0,0-1.325-1.963,6.272,6.272,0,0,0-1.962-1.316,6.1,6.1,0,0,0-2.368-.471,5.842,5.842,0,0,0-2.8.666,5.978,5.978,0,0,0-2.107,1.808,6.075,6.075,0,0,0-4.906-2.474,6.046,6.046,0,0,0-2.385.471,6.19,6.19,0,0,0-1.945,1.316,6.15,6.15,0,0,0-1.811,4.317v6.082h2.431v-6.082a3.77,3.77,0,0,1,1.076-2.621,3.684,3.684,0,0,1,2.634-1.074,3.619,3.619,0,0,1,1.424.286,3.775,3.775,0,0,1,1.175.787,3.819,3.819,0,0,1,1.081,2.621v6.082h2.426v-6.082a3.671,3.671,0,0,1,.28-1.429,3.412,3.412,0,0,1,.8-1.192,3.665,3.665,0,0,1,2.622-1.074,3.658,3.658,0,0,1,1.431.286" transform="translate(-347.785 -137.33)" fill="#091d60"/>
        <path id="패스_38453" data-name="패스 38453" d="M633.4,173.032v-2.414H632.17a5.985,5.985,0,0,0-2.374.465,6.634,6.634,0,0,0-1.954,1.3,6.273,6.273,0,0,0-1.329,1.934,6.062,6.062,0,0,0-.466,2.377v6.1H628.5v-6.1a3.681,3.681,0,0,1,.286-1.437,3.844,3.844,0,0,1,.783-1.159,3.753,3.753,0,0,1,1.179-.794,3.833,3.833,0,0,1,1.425-.274Z" transform="translate(-503.136 -137.237)" fill="#091d60"/>
        <path id="패스_38454" data-name="패스 38454" d="M672.448,166.27a6.619,6.619,0,0,0,1.954,1.3,5.982,5.982,0,0,0,2.374.465H678v-2.414h-1.229a3.842,3.842,0,0,1-1.425-.273,3.763,3.763,0,0,1-1.179-.794,3.829,3.829,0,0,1-.783-1.16,3.681,3.681,0,0,1-.286-1.437v-3.635h3.483V155.88H673.1v-3.613h-2.45v9.691a6.06,6.06,0,0,0,.466,2.377,6.274,6.274,0,0,0,1.33,1.935" transform="translate(-538.984 -122.476)" fill="#091d60"/>
        <path id="패스_38455" data-name="패스 38455" d="M361.947,178.061h.143a1.221,1.221,0,1,1,0,2.442h-6.9v2.443h6.9a3.663,3.663,0,1,0,0-7.327h-7.047a1.221,1.221,0,1,1,0-2.442h6.9v-2.442h-6.9a3.663,3.663,0,1,0,0,7.327h6.9Z" transform="translate(-282.384 -137.33)" fill="#091d60"/>
        <path id="패스_38456" data-name="패스 38456" d="M664.845,261.271H657.8a1.221,1.221,0,1,1,0-2.442h6.9v-2.442h-6.9a3.663,3.663,0,1,0,0,7.327h7.046a1.221,1.221,0,1,1,0,2.442h-6.9V268.6h6.9a3.664,3.664,0,1,0,0-7.327" transform="translate(-525.701 -206.225)" fill="#091d60"/>
        <path id="패스_38457" data-name="패스 38457" d="M590.556,253.82a6.109,6.109,0,0,0-6.113,6.092v7.06h2.451v-7.06a3.662,3.662,0,0,1,7.323,0v7.06h2.452v-7.06a6.11,6.11,0,0,0-6.114-6.092" transform="translate(-469.701 -204.16)" fill="#091d60"/>
        <path id="패스_38458" data-name="패스 38458" d="M451.607,264.7c0,.052.007.1.007.155a3.544,3.544,0,0,1-.287,1.437,3.8,3.8,0,0,1-.79,1.16,3.661,3.661,0,0,1-1.18.794,4.082,4.082,0,0,1-1.447.273,3.983,3.983,0,0,1-1.442-.273A3.49,3.49,0,0,1,446,268a3.362,3.362,0,0,1-.669-.511,3.624,3.624,0,0,1-.79-1.181,3.737,3.737,0,0,1,0-2.874,3.786,3.786,0,0,1,.79-1.16,3.65,3.65,0,0,1,1.179-.794,4.088,4.088,0,0,1,1.448-.274,3.989,3.989,0,0,1,1.442.274c.047.019.085.048.131.069l-5.216,5.2,1.733,1.727,5.235-5.216a.02.02,0,0,0,0,.006l1.765-1.759a5.906,5.906,0,0,0-.767-.944,6.461,6.461,0,0,0-1.939-1.3,6.3,6.3,0,0,0-4.753,0,6.737,6.737,0,0,0-1.968,1.3,6.17,6.17,0,0,0-1.321,1.934,6.13,6.13,0,0,0,0,4.731,6.177,6.177,0,0,0,.528.981l-.017.017a5.933,5.933,0,0,0,.767.944,6.462,6.462,0,0,0,1.94,1.3,6.306,6.306,0,0,0,4.753,0,6.735,6.735,0,0,0,1.968-1.3,6.163,6.163,0,0,0,1.321-1.935,6.043,6.043,0,0,0,.475-2.376c0-.052-.007-.1-.008-.155Z" transform="translate(-355.087 -208.162)" fill="#091d60"/>
        <path id="패스_38459" data-name="패스 38459" d="M392.379,262.541a6.208,6.208,0,0,0-1.321-1.962,6.3,6.3,0,0,0-1.968-1.309,5.837,5.837,0,0,0-2.367-.476h-3.711V261.2h3.711a3.791,3.791,0,0,1,1.448.287,3.578,3.578,0,0,1,1.18.788,3.629,3.629,0,0,1,.79,1.182,3.564,3.564,0,0,1,.286,1.406h2.426a6.075,6.075,0,0,0-.473-2.323" transform="translate(-307.817 -208.161)" fill="#091d60"/>
      </g>
    </g>
    <g id="그룹_2106" data-name="그룹 2106" transform="translate(75.196 50.622)">
      <g id="그룹_2105" data-name="그룹 2105" clip-path="url(#clip-path-2)">
        <rect id="사각형_2068" data-name="사각형 2068" width="9.84" height="6.092" fill="#091d60"/>
      </g>
    </g>
    <g id="그룹_2108" data-name="그룹 2108">
      <g id="그룹_2107" data-name="그룹 2107" clip-path="url(#clip-path)">
        <path id="패스_38461" data-name="패스 38461" d="M380.623,234.193c0,.01,0,.02,0,.031a3.54,3.54,0,0,1-.287,1.436,3.791,3.791,0,0,1-.79,1.16,3.658,3.658,0,0,1-1.18.794,4.082,4.082,0,0,1-1.447.273,3.984,3.984,0,0,1-1.442-.273,3.459,3.459,0,0,1-1.188-.794,3.9,3.9,0,0,1-.794-1.16,3.738,3.738,0,0,1-.287-1.436V220.663H373.2a2.379,2.379,0,0,0-2.383,2.375v11.187a5.8,5.8,0,0,0,.478,2.376,6.135,6.135,0,0,0,1.3,1.935,6.473,6.473,0,0,0,1.939,1.3,6.309,6.309,0,0,0,4.753,0,6.748,6.748,0,0,0,1.968-1.3,6.16,6.16,0,0,0,1.321-1.935,6.055,6.055,0,0,0,.475-2.405l0,0Z" transform="translate(-298.014 -177.491)" fill="#091d60"/>
      </g>
    </g>
    <g id="그룹_2110" data-name="그룹 2110" transform="translate(72.801 43.139)">
      <g id="그룹_2109" data-name="그룹 2109" clip-path="url(#clip-path-4)">
        <path id="패스_38462" data-name="패스 38462" d="M374.875,220.663l-4.06,4.06v-4.06Z" transform="translate(-370.815 -220.663)" fill="#091d60"/>
        <path id="패스_38463" data-name="패스 38463" d="M374.973,220.663l-4.158,4.158v-.1l4.06-4.06Z" transform="translate(-370.815 -220.663)" fill="#091d60"/>
        <path id="패스_38464" data-name="패스 38464" d="M375.07,220.663l-4.254,4.254v-.1l4.157-4.158Z" transform="translate(-370.815 -220.663)" fill="#091d60"/>
        <path id="패스_38465" data-name="패스 38465" d="M375.167,220.663l-4.352,4.352v-.1l4.254-4.254Z" transform="translate(-370.815 -220.663)" fill="#091d60"/>
        <path id="패스_38466" data-name="패스 38466" d="M375.264,220.663l-4.449,4.449v-.1l4.352-4.352Z" transform="translate(-370.815 -220.663)" fill="#091d60"/>
        <path id="패스_38467" data-name="패스 38467" d="M375.362,220.663l-4.546,4.546v-.1l4.449-4.449Z" transform="translate(-370.815 -220.663)" fill="#091d60"/>
        <path id="패스_38468" data-name="패스 38468" d="M375.458,220.663l-4.643,4.643v-.1l4.546-4.546Z" transform="translate(-370.815 -220.663)" fill="#091d60"/>
        <path id="패스_38469" data-name="패스 38469" d="M375.556,220.663l-4.741,4.741v-.1l4.643-4.643Z" transform="translate(-370.815 -220.663)" fill="#091d60"/>
        <path id="패스_38470" data-name="패스 38470" d="M375.653,220.663l-4.838,4.838v-.1l4.741-4.741Z" transform="translate(-370.815 -220.663)" fill="#091d60"/>
        <path id="패스_38471" data-name="패스 38471" d="M375.751,220.663l-4.935,4.935v-.1l4.838-4.838Z" transform="translate(-370.815 -220.663)" fill="#091d60"/>
        <path id="패스_38472" data-name="패스 38472" d="M375.847,220.663l-5.032,5.032v-.1l4.935-4.935Z" transform="translate(-370.815 -220.663)" fill="#091d60"/>
        <path id="패스_38473" data-name="패스 38473" d="M375.872,220.663l.036.037-5.093,5.093v-.1l5.032-5.032Z" transform="translate(-370.815 -220.663)" fill="#091d60"/>
        <path id="패스_38474" data-name="패스 38474" d="M375.908,220.849l.048.049-5.142,5.141v-.1Z" transform="translate(-370.815 -220.813)" fill="#091d60"/>
        <path id="패스_38475" data-name="패스 38475" d="M375.957,221.1l.048.049-5.19,5.19v-.1Z" transform="translate(-370.816 -221.013)" fill="#091d60"/>
        <path id="패스_38476" data-name="패스 38476" d="M376.006,221.346l.048.049-5.238,5.239v-.1Z" transform="translate(-370.816 -221.212)" fill="#091d60"/>
        <path id="패스_38477" data-name="패스 38477" d="M376.054,221.592l.049.049-5.288,5.288v-.1Z" transform="translate(-370.815 -221.41)" fill="#091d60"/>
        <path id="패스_38478" data-name="패스 38478" d="M376.1,221.839l.048.049-5.336,5.335v-.1Z" transform="translate(-370.815 -221.608)" fill="#091d60"/>
        <path id="패스_38479" data-name="패스 38479" d="M376.151,222.089l.049.048-5.385,5.384v-.1Z" transform="translate(-370.815 -221.809)" fill="#091d60"/>
        <path id="패스_38480" data-name="패스 38480" d="M376.2,222.336l.049.049-5.434,5.433v-.1Z" transform="translate(-370.816 -222.007)" fill="#091d60"/>
        <path id="패스_38481" data-name="패스 38481" d="M376.249,222.583l.048.049-5.482,5.481v-.1Z" transform="translate(-370.815 -222.206)" fill="#091d60"/>
        <path id="패스_38482" data-name="패스 38482" d="M376.3,222.832l.049.048-5.531,5.53v-.1Z" transform="translate(-370.815 -222.406)" fill="#091d60"/>
        <path id="패스_38483" data-name="패스 38483" d="M376.346,223.079l.048.048-5.579,5.579v-.1Z" transform="translate(-370.815 -222.605)" fill="#091d60"/>
        <path id="패스_38484" data-name="패스 38484" d="M376.394,223.326l.049.048L370.815,229v-.1Z" transform="translate(-370.815 -222.803)" fill="#091d60"/>
        <path id="패스_38485" data-name="패스 38485" d="M376.443,223.573l.048.049-5.676,5.676v-.1Z" transform="translate(-370.815 -223.001)" fill="#091d60"/>
        <path id="패스_38486" data-name="패스 38486" d="M376.492,223.822l.049.049-5.725,5.724v-.1Z" transform="translate(-370.815 -223.202)" fill="#091d60"/>
        <path id="패스_38487" data-name="패스 38487" d="M376.54,224.069l.048.049-5.773,5.773v-.1Z" transform="translate(-370.815 -223.4)" fill="#091d60"/>
        <path id="패스_38488" data-name="패스 38488" d="M376.588,224.316l.049.048-5.822,5.822v-.1Z" transform="translate(-370.815 -223.599)" fill="#091d60"/>
        <path id="패스_38489" data-name="패스 38489" d="M376.638,224.563l.048.049-5.871,5.87v-.1Z" transform="translate(-370.816 -223.797)" fill="#091d60"/>
        <path id="패스_38490" data-name="패스 38490" d="M376.686,224.813l.048.048-5.919,5.919v-.1Z" transform="translate(-370.815 -223.998)" fill="#091d60"/>
        <path id="패스_38491" data-name="패스 38491" d="M376.735,225.059l.048.048-5.968,5.968v-.1Z" transform="translate(-370.815 -224.196)" fill="#091d60"/>
        <path id="패스_38492" data-name="패스 38492" d="M376.783,225.306l.049.049-6.017,6.016v-.1Z" transform="translate(-370.815 -224.395)" fill="#091d60"/>
        <path id="패스_38493" data-name="패스 38493" d="M376.832,225.553l.049.049-6.065,6.065v-.1Z" transform="translate(-370.815 -224.593)" fill="#091d60"/>
        <path id="패스_38494" data-name="패스 38494" d="M376.881,225.8l.049.048-6.114,6.113v-.1Z" transform="translate(-370.816 -224.794)" fill="#091d60"/>
        <path id="패스_38495" data-name="패스 38495" d="M376.929,226.05l.048.048-6.162,6.162v-.1Z" transform="translate(-370.816 -224.992)" fill="#091d60"/>
        <path id="패스_38496" data-name="패스 38496" d="M376.977,226.3l.049.048-6.211,6.211v-.1Z" transform="translate(-370.815 -225.19)" fill="#091d60"/>
        <path id="패스_38497" data-name="패스 38497" d="M377.026,226.543l.048.049-6.26,6.259v-.1Z" transform="translate(-370.815 -225.389)" fill="#091d60"/>
        <path id="패스_38498" data-name="패스 38498" d="M377.075,226.793l.049.049-6.308,6.308v-.1Z" transform="translate(-370.815 -225.589)" fill="#091d60"/>
        <path id="패스_38499" data-name="패스 38499" d="M377.124,227.04l.048.048-6.357,6.357v-.1Z" transform="translate(-370.816 -225.788)" fill="#091d60"/>
        <path id="패스_38500" data-name="패스 38500" d="M377.172,227.287l.049.048-6.406,6.406v-.1Z" transform="translate(-370.815 -225.986)" fill="#091d60"/>
        <path id="패스_38501" data-name="패스 38501" d="M377.221,227.533l.049.049-6.454,6.453v-.1Z" transform="translate(-370.815 -226.184)" fill="#091d60"/>
        <path id="패스_38502" data-name="패스 38502" d="M377.269,227.783l.048.049-6.5,6.5v-.1Z" transform="translate(-370.815 -226.385)" fill="#091d60"/>
        <path id="패스_38503" data-name="패스 38503" d="M377.318,228.03l.048.049-6.551,6.551v-.1Z" transform="translate(-370.816 -226.583)" fill="#091d60"/>
        <path id="패스_38504" data-name="패스 38504" d="M377.367,228.277l.049.049-6.6,6.6v-.1Z" transform="translate(-370.816 -226.782)" fill="#091d60"/>
        <path id="패스_38505" data-name="패스 38505" d="M377.415,228.523l.048.049-6.648,6.648v-.1Z" transform="translate(-370.815 -226.98)" fill="#091d60"/>
        <path id="패스_38506" data-name="패스 38506" d="M377.464,228.773l.048.048-6.7,6.7v-.1Z" transform="translate(-370.815 -227.181)" fill="#091d60"/>
        <path id="패스_38507" data-name="패스 38507" d="M377.512,229.02l.048.049-6.746,6.745v-.1Z" transform="translate(-370.815 -227.379)" fill="#091d60"/>
        <path id="패스_38508" data-name="패스 38508" d="M377.561,229.267l.049.049-6.794,6.794v-.1Z" transform="translate(-370.816 -227.577)" fill="#091d60"/>
        <path id="패스_38509" data-name="패스 38509" d="M377.61,229.514l.048.049-6.843,6.842v-.1Z" transform="translate(-370.815 -227.776)" fill="#091d60"/>
        <path id="패스_38510" data-name="패스 38510" d="M377.658,229.763l.048.048-6.891,6.891v-.1Z" transform="translate(-370.815 -227.976)" fill="#091d60"/>
        <path id="패스_38511" data-name="패스 38511" d="M377.707,230.01l.049.048-6.94,6.94v-.1Z" transform="translate(-370.815 -228.175)" fill="#091d60"/>
        <path id="패스_38512" data-name="패스 38512" d="M377.755,230.257l.049.049-6.989,6.989v-.1Z" transform="translate(-370.815 -228.373)" fill="#091d60"/>
        <path id="패스_38513" data-name="패스 38513" d="M377.8,230.5l.048.049-7.037,7.037v-.1Z" transform="translate(-370.816 -228.572)" fill="#091d60"/>
        <path id="패스_38514" data-name="패스 38514" d="M377.853,230.754l.048.049-7.086,7.086v-.1Z" transform="translate(-370.815 -228.772)" fill="#091d60"/>
        <path id="패스_38515" data-name="패스 38515" d="M377.9,231l.049.048-7.134,7.134v-.1Z" transform="translate(-370.815 -228.971)" fill="#091d60"/>
        <path id="패스_38516" data-name="패스 38516" d="M377.95,231.247l.049.048-7.183,7.183v-.1Z" transform="translate(-370.815 -229.169)" fill="#091d60"/>
        <path id="패스_38517" data-name="패스 38517" d="M378,231.494l.048.049-7.232,7.231v-.1Z" transform="translate(-370.816 -229.367)" fill="#091d60"/>
        <path id="패스_38518" data-name="패스 38518" d="M378.047,231.744l.048.049-7.28,7.28v-.1Z" transform="translate(-370.816 -229.568)" fill="#091d60"/>
        <path id="패스_38519" data-name="패스 38519" d="M378.1,231.99l.048.049-7.329,7.329v-.1Z" transform="translate(-370.815 -229.766)" fill="#091d60"/>
        <path id="패스_38520" data-name="패스 38520" d="M378.144,232.237l.049.049-7.378,7.378v-.1Z" transform="translate(-370.815 -229.965)" fill="#091d60"/>
        <path id="패스_38521" data-name="패스 38521" d="M378.193,232.484l.048.049-7.426,7.426v-.1Z" transform="translate(-370.815 -230.163)" fill="#091d60"/>
        <path id="패스_38522" data-name="패스 38522" d="M378.242,232.734l.049.048-7.475,7.475v-.1Z" transform="translate(-370.816 -230.364)" fill="#091d60"/>
        <path id="패스_38523" data-name="패스 38523" d="M378.29,232.981l.049.048-7.524,7.523v-.1Z" transform="translate(-370.815 -230.562)" fill="#091d60"/>
        <path id="패스_38524" data-name="패스 38524" d="M378.339,233.227l.048.049-7.572,7.572v-.1Z" transform="translate(-370.815 -230.76)" fill="#091d60"/>
        <path id="패스_38525" data-name="패스 38525" d="M378.387,233.477l.048.049-7.621,7.62v-.1Z" transform="translate(-370.815 -230.961)" fill="#091d60"/>
        <path id="패스_38526" data-name="패스 38526" d="M378.436,233.724l.048.048-7.669,7.669v-.1Z" transform="translate(-370.815 -231.159)" fill="#091d60"/>
        <path id="패스_38527" data-name="패스 38527" d="M378.485,233.971l.049.048-7.718,7.717v-.1Z" transform="translate(-370.816 -231.358)" fill="#091d60"/>
        <path id="패스_38528" data-name="패스 38528" d="M378.534,234.218l.048.049-7.767,7.766v-.1Z" transform="translate(-370.815 -231.556)" fill="#091d60"/>
        <path id="패스_38529" data-name="패스 38529" d="M378.582,234.467l.049.049-7.815,7.814v-.1Z" transform="translate(-370.815 -231.757)" fill="#091d60"/>
        <path id="패스_38530" data-name="패스 38530" d="M378.63,234.714l.048.049-7.864,7.863v-.1Z" transform="translate(-370.815 -231.955)" fill="#091d60"/>
        <path id="패스_38531" data-name="패스 38531" d="M378.678,234.961l.049.049-7.913,7.912v-.1Z" transform="translate(-370.815 -232.153)" fill="#091d60"/>
        <path id="패스_38532" data-name="패스 38532" d="M378.728,235.208l.048.049-7.961,7.96v-.1Z" transform="translate(-370.816 -232.352)" fill="#091d60"/>
        <path id="패스_38533" data-name="패스 38533" d="M378.777,235.457l.048.048-8.009,8.009v-.1Z" transform="translate(-370.815 -232.552)" fill="#091d60"/>
        <path id="패스_38534" data-name="패스 38534" d="M378.825,235.7l.048.049-8.058,8.058v-.1Z" transform="translate(-370.815 -232.751)" fill="#091d60"/>
        <path id="패스_38535" data-name="패스 38535" d="M378.873,235.951l.049.049-8.107,8.106v-.1Z" transform="translate(-370.815 -232.949)" fill="#091d60"/>
        <path id="패스_38536" data-name="패스 38536" d="M378.922,236.2l.048.049-8.156,8.155v-.1Z" transform="translate(-370.815 -233.148)" fill="#091d60"/>
        <path id="패스_38537" data-name="패스 38537" d="M378.971,236.448l.048.048-8.2,8.2v-.1Z" transform="translate(-370.815 -233.348)" fill="#091d60"/>
        <path id="패스_38538" data-name="패스 38538" d="M379.019,236.694l.048.048L370.815,245v-.1Z" transform="translate(-370.815 -233.547)" fill="#091d60"/>
        <path id="패스_38539" data-name="패스 38539" d="M379.068,236.941l.049.048-8.3,8.3v-.1Z" transform="translate(-370.815 -233.745)" fill="#091d60"/>
        <path id="패스_38540" data-name="패스 38540" d="M379.116,237.188l.048.049-8.35,8.349v-.1Z" transform="translate(-370.815 -233.943)" fill="#091d60"/>
        <path id="패스_38541" data-name="패스 38541" d="M379.165,237.438l.049.048-8.4,8.4v-.1Z" transform="translate(-370.815 -234.144)" fill="#091d60"/>
        <path id="패스_38542" data-name="패스 38542" d="M379.214,237.685l.048.048-8.447,8.447v-.1Z" transform="translate(-370.815 -234.342)" fill="#091d60"/>
        <path id="패스_38543" data-name="패스 38543" d="M379.262,237.931l.049.048-8.5,8.5v-.1Z" transform="translate(-370.815 -234.541)" fill="#091d60"/>
        <path id="패스_38544" data-name="패스 38544" d="M379.311,238.178l.048.049-8.544,8.544v-.1Z" transform="translate(-370.815 -234.739)" fill="#091d60"/>
        <path id="패스_38545" data-name="패스 38545" d="M379.359,238.428l.048.049-8.593,8.593v-.1Z" transform="translate(-370.815 -234.94)" fill="#091d60"/>
        <path id="패스_38546" data-name="패스 38546" d="M379.408,238.675l.048.049-8.641,8.641v-.1Z" transform="translate(-370.815 -235.138)" fill="#091d60"/>
        <path id="패스_38547" data-name="패스 38547" d="M379.457,238.922l.049.049-8.69,8.69v-.1Z" transform="translate(-370.815 -235.336)" fill="#091d60"/>
        <path id="패스_38548" data-name="패스 38548" d="M379.505,239.168l.049.049-8.739,8.738v-.1Z" transform="translate(-370.815 -235.535)" fill="#091d60"/>
        <path id="패스_38549" data-name="패스 38549" d="M379.554,239.418l.049.048-8.787,8.787v-.1Z" transform="translate(-370.815 -235.735)" fill="#091d60"/>
        <path id="패스_38550" data-name="패스 38550" d="M379.6,239.665l.048.048-8.836,8.836v-.1Z" transform="translate(-370.815 -235.934)" fill="#091d60"/>
        <path id="패스_38551" data-name="패스 38551" d="M379.651,239.912l.049.049-8.885,8.885v-.1Z" transform="translate(-370.816 -236.132)" fill="#091d60"/>
        <path id="패스_38552" data-name="패스 38552" d="M379.7,240.159l.048.049-8.933,8.933v-.1Z" transform="translate(-370.815 -236.33)" fill="#091d60"/>
        <path id="패스_38553" data-name="패스 38553" d="M379.748,240.408l.048.048-8.982,8.982v-.1Z" transform="translate(-370.815 -236.531)" fill="#091d60"/>
        <path id="패스_38554" data-name="패스 38554" d="M379.8,240.655l.048.048-9.03,9.03v-.1Z" transform="translate(-370.815 -236.73)" fill="#091d60"/>
        <path id="패스_38555" data-name="패스 38555" d="M379.845,240.9l.049.048-9.079,9.079v-.1Z" transform="translate(-370.815 -236.928)" fill="#091d60"/>
        <path id="패스_38556" data-name="패스 38556" d="M379.895,241.149l.048.049-9.128,9.127v-.1Z" transform="translate(-370.815 -237.126)" fill="#091d60"/>
        <path id="패스_38557" data-name="패스 38557" d="M379.943,241.4l.048.049-9.176,9.176v-.1Z" transform="translate(-370.815 -237.327)" fill="#091d60"/>
        <path id="패스_38558" data-name="패스 38558" d="M379.991,241.645l.048.049-9.225,9.225v-.1Z" transform="translate(-370.815 -237.525)" fill="#091d60"/>
        <path id="패스_38559" data-name="패스 38559" d="M380.04,241.892l.049.048-9.274,9.273v-.1Z" transform="translate(-370.815 -237.724)" fill="#091d60"/>
        <path id="패스_38560" data-name="패스 38560" d="M380.089,242.139l.048.049-9.322,9.321v-.1Z" transform="translate(-370.816 -237.922)" fill="#091d60"/>
        <path id="패스_38561" data-name="패스 38561" d="M380.137,242.389l.048.048-9.37,9.37v-.1Z" transform="translate(-370.815 -238.123)" fill="#091d60"/>
        <path id="패스_38562" data-name="패스 38562" d="M380.186,242.635l.049.049-9.419,9.419v-.1Z" transform="translate(-370.815 -238.321)" fill="#091d60"/>
        <path id="패스_38563" data-name="패스 38563" d="M380.235,242.882l.048.049-9.468,9.467v-.1Z" transform="translate(-370.815 -238.519)" fill="#091d60"/>
        <path id="패스_38564" data-name="패스 38564" d="M380.283,243.132l.048.048-9.516,9.516v-.1Z" transform="translate(-370.815 -238.72)" fill="#091d60"/>
        <path id="패스_38565" data-name="패스 38565" d="M380.332,243.379l.048.048-9.565,9.565v-.1Z" transform="translate(-370.816 -238.918)" fill="#091d60"/>
        <path id="패스_38566" data-name="패스 38566" d="M380.38,243.626l.049.048-9.614,9.613v-.1Z" transform="translate(-370.815 -239.117)" fill="#091d60"/>
        <path id="패스_38567" data-name="패스 38567" d="M380.429,243.872l.048.049-9.662,9.662v-.1Z" transform="translate(-370.815 -239.315)" fill="#091d60"/>
        <path id="패스_38568" data-name="패스 38568" d="M380.477,244.122l.049.049-9.711,9.71v-.1Z" transform="translate(-370.815 -239.516)" fill="#091d60"/>
        <path id="패스_38569" data-name="패스 38569" d="M380.526,244.369l.049.048-9.759,9.759v-.1Z" transform="translate(-370.815 -239.714)" fill="#091d60"/>
        <path id="패스_38570" data-name="패스 38570" d="M380.575,244.616l.049.048-9.808,9.808v-.1Z" transform="translate(-370.816 -239.913)" fill="#091d60"/>
        <path id="패스_38571" data-name="패스 38571" d="M380.624,244.863l.048.049-9.857,9.856v-.1Z" transform="translate(-370.815 -240.111)" fill="#091d60"/>
        <path id="패스_38572" data-name="패스 38572" d="M380.672,245.112l.049.049-9.905,9.9v-.1Z" transform="translate(-370.815 -240.312)" fill="#091d60"/>
        <path id="패스_38573" data-name="패스 38573" d="M380.72,245.359l.048.049-9.954,9.954v-.1Z" transform="translate(-370.815 -240.51)" fill="#091d60"/>
        <path id="패스_38574" data-name="패스 38574" d="M380.769,245.606l.049.049-10,10v-.1Z" transform="translate(-370.815 -240.708)" fill="#091d60"/>
        <path id="패스_38575" data-name="패스 38575" d="M380.818,245.853l.048.049-10.051,10.051v-.1Z" transform="translate(-370.815 -240.907)" fill="#091d60"/>
        <path id="패스_38576" data-name="패스 38576" d="M380.867,246.1l.049.048-10.1,10.1v-.1Z" transform="translate(-370.815 -241.107)" fill="#091d60"/>
        <path id="패스_38577" data-name="패스 38577" d="M380.915,246.349l.048.048-10.148,10.148v-.1Z" transform="translate(-370.815 -241.306)" fill="#091d60"/>
        <path id="패스_38578" data-name="패스 38578" d="M380.963,246.6l.049.049-10.2,10.2v-.1Z" transform="translate(-370.815 -241.504)" fill="#091d60"/>
        <path id="패스_38579" data-name="패스 38579" d="M381.013,246.843l.048.049-10.246,10.245v-.1Z" transform="translate(-370.816 -241.702)" fill="#091d60"/>
        <path id="패스_38580" data-name="패스 38580" d="M381.061,247.093l.048.048-10.294,10.293v-.1Z" transform="translate(-370.815 -241.903)" fill="#091d60"/>
        <path id="패스_38581" data-name="패스 38581" d="M381.109,247.339l.048.048L370.815,257.73v-.1Z" transform="translate(-370.815 -242.101)" fill="#091d60"/>
        <path id="패스_38582" data-name="패스 38582" d="M381.158,247.586l.049.048-10.392,10.391v-.1Z" transform="translate(-370.815 -242.3)" fill="#091d60"/>
        <path id="패스_38583" data-name="패스 38583" d="M381.207,247.833l.048.049-10.44,10.439v-.1Z" transform="translate(-370.815 -242.498)" fill="#091d60"/>
        <path id="패스_38584" data-name="패스 38584" d="M381.256,248.083l.049.049L370.816,258.62v-.1Z" transform="translate(-370.816 -242.699)" fill="#091d60"/>
        <path id="패스_38585" data-name="패스 38585" d="M381.3,248.33l.048.048-10.537,10.537v-.1Z" transform="translate(-370.815 -242.897)" fill="#091d60"/>
        <path id="패스_38586" data-name="패스 38586" d="M381.352,248.576l.049.048-10.586,10.586v-.1Z" transform="translate(-370.815 -243.095)" fill="#091d60"/>
        <path id="패스_38587" data-name="패스 38587" d="M381.4,248.823l.048.049-10.635,10.634v-.1Z" transform="translate(-370.815 -243.294)" fill="#091d60"/>
        <path id="패스_38588" data-name="패스 38588" d="M381.449,249.073l.048.048L370.815,259.8v-.1Z" transform="translate(-370.815 -243.494)" fill="#091d60"/>
        <path id="패스_38589" data-name="패스 38589" d="M381.5,249.32l.048.049L370.816,260.1V260Z" transform="translate(-370.816 -243.693)" fill="#091d60"/>
        <path id="패스_38590" data-name="패스 38590" d="M381.547,249.567l.049.049-10.78,10.78v-.1Z" transform="translate(-370.815 -243.891)" fill="#091d60"/>
        <path id="패스_38591" data-name="패스 38591" d="M381.6,249.813l.049.049-10.829,10.828v-.1Z" transform="translate(-370.815 -244.09)" fill="#091d60"/>
        <path id="패스_38592" data-name="패스 38592" d="M381.644,250.063l.049.048-10.877,10.877v-.1Z" transform="translate(-370.815 -244.29)" fill="#091d60"/>
        <path id="패스_38593" data-name="패스 38593" d="M381.693,250.31l.048.048-10.926,10.926v-.1Z" transform="translate(-370.816 -244.489)" fill="#091d60"/>
        <path id="패스_38594" data-name="패스 38594" d="M381.742,250.557l.049.048L370.816,261.58v-.1Z" transform="translate(-370.816 -244.687)" fill="#091d60"/>
        <path id="패스_38595" data-name="패스 38595" d="M381.79,250.8l.048.049-11.023,11.023v-.1Z" transform="translate(-370.815 -244.885)" fill="#091d60"/>
        <path id="패스_38596" data-name="패스 38596" d="M381.839,251.053l.048.048-11.072,11.072v-.1Z" transform="translate(-370.815 -245.086)" fill="#091d60"/>
        <path id="패스_38597" data-name="패스 38597" d="M381.887,251.3l.049.049-11.12,11.12v-.1Z" transform="translate(-370.815 -245.284)" fill="#091d60"/>
        <path id="패스_38598" data-name="패스 38598" d="M381.936,251.547l.049.049-11.169,11.169v-.1Z" transform="translate(-370.816 -245.483)" fill="#091d60"/>
        <path id="패스_38599" data-name="패스 38599" d="M381.985,251.794l.048.049L370.815,263.06v-.1Z" transform="translate(-370.815 -245.681)" fill="#091d60"/>
        <path id="패스_38600" data-name="패스 38600" d="M382.033,252.043l.048.049-11.266,11.266v-.1Z" transform="translate(-370.815 -245.882)" fill="#091d60"/>
        <path id="패스_38601" data-name="패스 38601" d="M382.081,252.29l.049.049-11.315,11.314v-.1Z" transform="translate(-370.815 -246.08)" fill="#091d60"/>
        <path id="패스_38602" data-name="패스 38602" d="M382.13,252.537l.049.048-11.364,11.364v-.1Z" transform="translate(-370.815 -246.278)" fill="#091d60"/>
        <path id="패스_38603" data-name="패스 38603" d="M382.179,252.784l.048.049-11.412,11.411v-.1Z" transform="translate(-370.816 -246.477)" fill="#091d60"/>
        <path id="패스_38604" data-name="패스 38604" d="M382.228,253.034l.048.048-11.461,11.461v-.1Z" transform="translate(-370.815 -246.677)" fill="#091d60"/>
        <path id="패스_38605" data-name="패스 38605" d="M382.276,253.28l.049.048-11.51,11.509v-.1Z" transform="translate(-370.815 -246.876)" fill="#091d60"/>
        <path id="패스_38606" data-name="패스 38606" d="M382.325,253.527l.048.049-11.558,11.557v-.1Z" transform="translate(-370.815 -247.074)" fill="#091d60"/>
        <path id="패스_38607" data-name="패스 38607" d="M382.374,253.777l.048.049-11.606,11.606v-.1Z" transform="translate(-370.816 -247.275)" fill="#091d60"/>
        <path id="패스_38608" data-name="패스 38608" d="M382.422,254.024l.048.049-11.655,11.655v-.1Z" transform="translate(-370.815 -247.473)" fill="#091d60"/>
        <path id="패스_38609" data-name="패스 38609" d="M382.47,254.27l.049.049-11.7,11.7v-.1Z" transform="translate(-370.815 -247.671)" fill="#091d60"/>
        <path id="패스_38610" data-name="패스 38610" d="M382.519,254.517l.048.049-11.753,11.752v-.1Z" transform="translate(-370.815 -247.87)" fill="#091d60"/>
        <path id="패스_38611" data-name="패스 38611" d="M382.568,254.767l.048.049-11.8,11.8v-.1Z" transform="translate(-370.815 -248.071)" fill="#091d60"/>
        <path id="패스_38612" data-name="패스 38612" d="M382.617,255.014l.049.048-11.849,11.849v-.1Z" transform="translate(-370.816 -248.269)" fill="#091d60"/>
        <path id="패스_38613" data-name="패스 38613" d="M382.665,255.261l.049.048-11.9,11.9v-.1Z" transform="translate(-370.816 -248.467)" fill="#091d60"/>
        <path id="패스_38614" data-name="패스 38614" d="M382.714,255.507l.048.049-11.938,11.937-.009-.008v-.08Z" transform="translate(-370.815 -248.666)" fill="#091d60"/>
        <rect id="사각형_2070" data-name="사각형 2070" width="16.882" height="0.069" transform="translate(0.009 18.828) rotate(-44.996)" fill="#091d60"/>
        <rect id="사각형_2071" data-name="사각형 2071" width="16.882" height="0.069" transform="translate(0.057 18.877) rotate(-44.996)" fill="#091d60"/>
        <path id="패스_38615" data-name="패스 38615" d="M383.3,256.251l.049.048-11.938,11.938-.048-.049Z" transform="translate(-371.252 -249.263)" fill="#091d60"/>
        <path id="패스_38616" data-name="패스 38616" d="M383.543,256.5l.048.049-11.938,11.937-.048-.048Z" transform="translate(-371.45 -249.461)" fill="#091d60"/>
        <rect id="사각형_2072" data-name="사각형 2072" width="16.882" height="0.069" transform="translate(0.203 19.022) rotate(-44.996)" fill="#091d60"/>
        <rect id="사각형_2073" data-name="사각형 2073" width="16.882" height="0.069" transform="translate(0.252 19.071) rotate(-44.996)" fill="#091d60"/>
        <path id="패스_38617" data-name="패스 38617" d="M384.285,257.241l0,0v.093L372.4,269.227l-.049-.048Z" transform="translate(-372.047 -250.059)" fill="#091d60"/>
        <path id="패스_38618" data-name="패스 38618" d="M384.487,257.822l-11.842,11.843-.048-.049,11.891-11.891Z" transform="translate(-372.246 -250.448)" fill="#091d60"/>
        <path id="패스_38619" data-name="패스 38619" d="M384.685,258.317l-11.794,11.794-.048-.049,11.842-11.843Z" transform="translate(-372.444 -250.845)" fill="#091d60"/>
        <path id="패스_38620" data-name="패스 38620" d="M384.883,258.813l-11.745,11.746-.049-.048,11.794-11.794Z" transform="translate(-372.642 -251.244)" fill="#091d60"/>
        <path id="패스_38621" data-name="패스 38621" d="M385.084,259.308l-11.7,11.7-.049-.048,11.745-11.745Z" transform="translate(-372.843 -251.641)" fill="#091d60"/>
        <path id="패스_38622" data-name="패스 38622" d="M385.282,259.8l-11.648,11.648-.049-.048,11.7-11.7Z" transform="translate(-373.042 -252.04)" fill="#091d60"/>
        <path id="패스_38623" data-name="패스 38623" d="M385.481,260.3l-11.6,11.6-.048-.049L385.481,260.2Z" transform="translate(-373.24 -252.437)" fill="#091d60"/>
        <path id="패스_38624" data-name="패스 38624" d="M385.678,260.793l-11.551,11.551-.049-.049,11.6-11.6Z" transform="translate(-373.438 -252.835)" fill="#091d60"/>
        <path id="패스_38625" data-name="패스 38625" d="M385.879,261.287l-11.5,11.5-.049-.048,11.551-11.551Z" transform="translate(-373.639 -253.232)" fill="#091d60"/>
        <path id="패스_38626" data-name="패스 38626" d="M386.078,261.783l-11.454,11.454-.049-.048,11.5-11.5Z" transform="translate(-373.837 -253.631)" fill="#091d60"/>
        <path id="패스_38627" data-name="패스 38627" d="M386.276,262.278l-11.405,11.405-.049-.049,11.454-11.454Z" transform="translate(-374.036 -254.028)" fill="#091d60"/>
        <path id="패스_38628" data-name="패스 38628" d="M386.475,262.773,375.118,274.13l-.049-.048,11.405-11.405Z" transform="translate(-374.234 -254.427)" fill="#091d60"/>
        <path id="패스_38629" data-name="패스 38629" d="M386.675,263.267l-11.266,11.266h-.084l-.006-.006,11.356-11.357Z" transform="translate(-374.434 -254.823)" fill="#091d60"/>
        <path id="패스_38630" data-name="패스 38630" d="M387.046,263.763l-11.168,11.169h-.1l11.266-11.266Z" transform="translate(-374.806 -255.223)" fill="#091d60"/>
        <path id="패스_38631" data-name="패스 38631" d="M387.445,264.258,376.374,275.33h-.1l11.168-11.169Z" transform="translate(-375.205 -255.62)" fill="#091d60"/>
        <path id="패스_38632" data-name="패스 38632" d="M387.842,264.754l-10.974,10.974h-.1l11.071-11.071Z" transform="translate(-375.601 -256.018)" fill="#091d60"/>
        <path id="패스_38633" data-name="패스 38633" d="M388.241,265.248l-10.877,10.877h-.1l10.974-10.974Z" transform="translate(-376.001 -256.415)" fill="#091d60"/>
        <path id="패스_38634" data-name="패스 38634" d="M388.637,265.744l-10.779,10.78h-.1l10.877-10.877Z" transform="translate(-376.397 -256.814)" fill="#091d60"/>
        <path id="패스_38635" data-name="패스 38635" d="M389.037,266.239l-10.682,10.682h-.1l10.779-10.78Z" transform="translate(-376.796 -257.211)" fill="#091d60"/>
        <path id="패스_38636" data-name="패스 38636" d="M389.434,266.734l-10.585,10.585h-.1l10.682-10.682Z" transform="translate(-377.193 -257.61)" fill="#091d60"/>
        <path id="패스_38637" data-name="패스 38637" d="M389.832,267.229l-10.488,10.488h-.1l10.585-10.585Z" transform="translate(-377.592 -258.007)" fill="#091d60"/>
        <path id="패스_38638" data-name="패스 38638" d="M390.229,267.724l-10.391,10.391h-.1l10.488-10.488Z" transform="translate(-377.989 -258.406)" fill="#091d60"/>
        <path id="패스_38639" data-name="패스 38639" d="M390.628,268.219l-10.293,10.293h-.1l10.39-10.391Z" transform="translate(-378.387 -258.803)" fill="#091d60"/>
        <path id="패스_38640" data-name="패스 38640" d="M391.025,268.714l-10.2,10.2h-.1l10.293-10.294Z" transform="translate(-378.784 -259.201)" fill="#091d60"/>
        <path id="패스_38641" data-name="패스 38641" d="M391.424,269.208l-10.1,10.1h-.1l10.2-10.2Z" transform="translate(-379.183 -259.598)" fill="#091d60"/>
        <path id="패스_38642" data-name="패스 38642" d="M391.821,269.7l-10,10h-.1l10.1-10.1Z" transform="translate(-379.58 -259.997)" fill="#091d60"/>
        <path id="패스_38643" data-name="패스 38643" d="M392.22,270.2l-9.9,9.9h-.1l10-10Z" transform="translate(-379.979 -260.394)" fill="#091d60"/>
        <path id="패스_38644" data-name="패스 38644" d="M392.616,270.695l-9.807,9.808h-.1l9.9-9.9Z" transform="translate(-380.376 -260.793)" fill="#091d60"/>
        <path id="패스_38645" data-name="패스 38645" d="M393.016,271.189l-9.71,9.71h-.1l9.807-9.808Z" transform="translate(-380.775 -261.19)" fill="#091d60"/>
        <path id="패스_38646" data-name="패스 38646" d="M393.412,271.685,383.8,281.3h-.1l9.71-9.71Z" transform="translate(-381.171 -261.588)" fill="#091d60"/>
        <path id="패스_38647" data-name="패스 38647" d="M393.811,272.179l-9.516,9.516h-.1l9.613-9.613Z" transform="translate(-381.571 -261.985)" fill="#091d60"/>
        <path id="패스_38648" data-name="패스 38648" d="M394.207,272.675l-9.418,9.419h-.1l9.516-9.516Z" transform="translate(-381.967 -262.384)" fill="#091d60"/>
        <path id="패스_38649" data-name="패스 38649" d="M394.607,273.169l-9.321,9.321h-.1l9.418-9.419Z" transform="translate(-382.366 -262.781)" fill="#091d60"/>
        <path id="패스_38650" data-name="패스 38650" d="M395,273.665l-9.224,9.224h-.1L395,273.568Z" transform="translate(-382.763 -263.18)" fill="#091d60"/>
        <path id="패스_38651" data-name="패스 38651" d="M395.4,274.159l-9.127,9.127h-.1l9.224-9.224Z" transform="translate(-383.162 -263.577)" fill="#091d60"/>
        <path id="패스_38652" data-name="패스 38652" d="M395.8,274.655l-9.03,9.03h-.1l9.127-9.127Z" transform="translate(-383.559 -263.976)" fill="#091d60"/>
        <path id="패스_38653" data-name="패스 38653" d="M396.2,275.15l-8.932,8.933h-.1l9.03-9.03Z" transform="translate(-383.957 -264.373)" fill="#091d60"/>
        <path id="패스_38654" data-name="패스 38654" d="M396.6,275.646l-8.835,8.835h-.1l8.933-8.933Z" transform="translate(-384.354 -264.771)" fill="#091d60"/>
        <path id="패스_38655" data-name="패스 38655" d="M396.994,276.142l-8.738,8.738h-.1l8.835-8.835Z" transform="translate(-384.754 -265.17)" fill="#091d60"/>
        <path id="패스_38656" data-name="패스 38656" d="M397.391,276.637l-8.641,8.641h-.1l8.738-8.738Z" transform="translate(-385.15 -265.568)" fill="#091d60"/>
        <path id="패스_38657" data-name="패스 38657" d="M397.79,277.132l-8.544,8.544h-.1l8.641-8.641Z" transform="translate(-385.549 -265.966)" fill="#091d60"/>
        <path id="패스_38658" data-name="패스 38658" d="M398.186,277.627l-8.446,8.446h-.1l8.544-8.544Z" transform="translate(-385.946 -266.364)" fill="#091d60"/>
        <path id="패스_38659" data-name="패스 38659" d="M398.586,278.122l-8.349,8.349h-.1l8.446-8.446Z" transform="translate(-386.345 -266.762)" fill="#091d60"/>
        <path id="패스_38660" data-name="패스 38660" d="M398.982,278.616l-8.252,8.252h-.1l8.349-8.349Z" transform="translate(-386.741 -267.158)" fill="#091d60"/>
        <path id="패스_38661" data-name="패스 38661" d="M399.381,279.112l-8.155,8.155h-.1l8.252-8.252Z" transform="translate(-387.141 -267.558)" fill="#091d60"/>
        <path id="패스_38662" data-name="패스 38662" d="M399.778,279.606l-8.057,8.057h-.1l8.155-8.155Z" transform="translate(-387.538 -267.954)" fill="#091d60"/>
        <path id="패스_38663" data-name="패스 38663" d="M392.12,288.063l8.057-8.057v8.057Z" transform="translate(-387.936 -268.354)" fill="#091d60"/>
      </g>
    </g>
    <g id="그룹_2112" data-name="그룹 2112">
      <g id="그룹_2111" data-name="그룹 2111" clip-path="url(#clip-path)">
        <path id="패스_38665" data-name="패스 38665" d="M197.764,94.812V92.257c17.433,0,25.908-10.528,25.908-32.186,0-10.788,2.065-18.412,12.141-20.559l1.117-.238.365,1.079c.033.1,3.126,9.717-8.839,15.189l-1.068-2.321c7.6-3.475,7.972-8.612,7.708-10.9-7.371,2.136-8.86,8.193-8.86,17.748,0,23.052-9.579,34.74-28.47,34.74" transform="translate(-158.937 -31.591)" fill="#091d60"/>
        <path id="패스_38666" data-name="패스 38666" d="M265.612,170.732a7.8,7.8,0,1,1,7.83-7.8,7.826,7.826,0,0,1-7.83,7.8m0-13.054a5.25,5.25,0,1,0,5.267,5.25,5.265,5.265,0,0,0-5.267-5.25" transform="translate(-207.171 -124.774)" fill="#091d60"/>
        <line id="선_672" data-name="선 672" y1="0.095" x2="0.116" transform="translate(54.529 56.895)" fill="#fff"/>
        <path id="패스_38667" data-name="패스 38667" d="M160.782,153.393a3,3,0,0,0,3.618.487l3.3,3.287v12.479h1.538V156.533l-3.728-3.716a2.985,2.985,0,0,0-.442-3.694,3.111,3.111,0,0,0-4.284,0,3.012,3.012,0,0,0,0,4.269m1.088-3.186a1.489,1.489,0,1,1,2.108,2.1,1.531,1.531,0,0,1-2.108,0,1.483,1.483,0,0,1,0-2.1" transform="translate(-128.503 -119.26)" fill="#091d60"/>
        <path id="패스_38668" data-name="패스 38668" d="M142.262,212.259a2.991,2.991,0,0,0-.888-2.134,3.11,3.11,0,0,0-4.284,0,3.013,3.013,0,0,0,3.575,4.78l10.488,10.453,1.088-1.083-10.448-10.412a2.984,2.984,0,0,0,.469-1.6m-1.975,1.051a1.532,1.532,0,0,1-2.109,0,1.492,1.492,0,1,1,2.109,0" transform="translate(-109.463 -168.326)" fill="#091d60"/>
        <path id="패스_38669" data-name="패스 38669" d="M268.693,291.067a3.011,3.011,0,0,0-5.033,1.274H248.829v1.532H263.6a3.009,3.009,0,0,0,2.947,2.347,3.1,3.1,0,0,0,3.029-3.018,3,3,0,0,0-.887-2.135m-1.088,3.186a1.491,1.491,0,0,1-2.546-1.052,1.526,1.526,0,0,1,1.491-1.486,1.485,1.485,0,0,1,1.055,2.537" transform="translate(-199.976 -233.409)" fill="#091d60"/>
        <path id="패스_38670" data-name="패스 38670" d="M215.328,92.34a3.014,3.014,0,0,0,1.559,5.095v17.892h1.538v-18a3,3,0,0,0,1.187-4.986,3.042,3.042,0,0,0-4.284,0m3.2,3.185h0a1.5,1.5,0,0,1-2.109,0,1.481,1.481,0,0,1,0-2.1,1.5,1.5,0,0,1,2.109,0,1.482,1.482,0,0,1,0,2.1" transform="translate(-172.34 -73.564)" fill="#091d60"/>
        <path id="패스_38671" data-name="패스 38671" d="M259.127,121.381l2.276-2.269a3,3,0,0,0,3.48-.561h0a3.01,3.01,0,0,0,0-4.269,3.11,3.11,0,0,0-4.284,0,3.007,3.007,0,0,0-.364,3.827l-2.646,2.638v12.166h1.538Zm2.56-6.016a1.489,1.489,0,1,1,2.109,2.1h0a1.53,1.53,0,0,1-2.109,0,1.483,1.483,0,0,1,0-2.1" transform="translate(-207.017 -91.235)" fill="#091d60"/>
        <path id="패스_38673" data-name="패스 38673" d="M0,0,1.535,0l.006,3.35-1.535,0Z" transform="translate(28.678 27.41) rotate(-45)" fill="#091d60"/>
        <rect id="사각형_2075" data-name="사각형 2075" width="1.538" height="3.345" transform="translate(33.558 24.706)" fill="#091d60"/>
        <rect id="사각형_2076" data-name="사각형 2076" width="3.356" height="1.533" transform="translate(27.092 31.078)" fill="#091d60"/>
        <path id="패스_38674" data-name="패스 38674" d="M0,0,3.351.006l0,1.535L0,1.535Z" transform="translate(36.704 28.632) rotate(-45)" fill="#091d60"/>
        <path id="패스_38675" data-name="패스 38675" d="M0,0,3.35.006l0,1.535L0,1.535Z" transform="translate(28.717 36.598) rotate(-45)" fill="#091d60"/>
        <path id="패스_38672" data-name="패스 38672" d="M209.672,226.4a10.048,10.048,0,1,1,10.083-10.049A10.077,10.077,0,0,1,209.672,226.4m0-17.542a7.494,7.494,0,1,0,7.521,7.493,7.515,7.515,0,0,0-7.521-7.493" transform="translate(-160.405 -165.938)" fill="#091d60"/>
      </g>
    </g>
  </g>
</svg>
